<svg width="10" height="15" viewBox="0 0 10 15" fill="none" xmlns="http://www.w3.org/2000/svg">
<path d="M9.19101 4.53102C9.09701 2.19302 7.148 0.297019 4.807 0.265019C4.786 0.263019 4.765 0.265019 4.744 0.265019C4.723 0.265019 4.703 0.263019 4.681 0.265019C2.341 0.296019 0.390006 2.19302 0.296006 4.53102C0.264006 5.36902 0.461005 6.15802 0.832005 6.84002L4.743 14.197L8.653 6.84002C9.027 6.15802 9.22501 5.36902 9.19101 4.53102ZM4.745 7.88301C2.995 7.88301 1.578 6.46502 1.578 4.71502C1.578 2.96702 2.995 1.54702 4.745 1.54702C6.495 1.54702 7.912 2.96702 7.912 4.71502C7.912 6.46502 6.495 7.88301 4.745 7.88301Z" fill="white"/>
</svg>
