<svg width="19" height="14" viewBox="0 0 19 14" fill="none" xmlns="http://www.w3.org/2000/svg">
<path d="M13.705 5.924C15.242 6.963 17.312 6.529 18.329 4.959C18.426 4.807 18.51 4.65001 18.582 4.48801C17.52 5.11301 16.164 5.115 15.074 4.379C13.685 3.441 13.206 1.619 13.876 0.117004C13.612 0.273004 13.365 0.469004 13.147 0.701004C13.007 0.849004 12.876 1.01399 12.761 1.19299C11.745 2.76399 12.166 4.883 13.705 5.924Z" fill="#FDF27D"/>
<path d="M14.072 8.381C13.825 8.381 13.589 8.422 13.367 8.494C13.369 8.457 13.373 8.42 13.373 8.381C13.373 7.328 12.539 6.47501 11.512 6.47501C11.324 6.47501 11.139 6.50401 10.969 6.55901C10.784 4.72901 9.275 3.30499 7.438 3.30499C5.511 3.30499 3.94401 4.875 3.89101 6.834C3.87001 6.834 3.851 6.832 3.83 6.832C2.159 6.832 0.804993 8.21699 0.804993 9.92999C0.804993 11.639 2.159 13.026 3.83 13.026H14.072C15.324 13.026 16.34 11.983 16.34 10.704C16.34 9.41999 15.324 8.381 14.072 8.381Z" fill="#E6E7E8"/>
</svg>
