<svg width="21" height="25" viewBox="0 0 21 25" fill="none" xmlns="http://www.w3.org/2000/svg">
<path d="M20 19H1C1 17.9757 1.40308 16.9948 2.12068 16.2748L2.4993 15.8889C3.11571 15.2709 3.46144 14.4277 3.46144 13.5496V9.09712C3.46144 5.09092 6.75347 1.86335 10.7572 2.00446C11.3475 2.02741 11.9133 2.12261 12.4572 2.28412C12.2464 2.84684 12.1283 3.46226 12.1283 4.09979C12.1283 6.95079 14.4219 9.26628 17.2536 9.26628C17.3514 9.26628 17.445 9.26203 17.5386 9.25778V9.26628V13.5496C17.5386 14.4277 17.8868 15.2709 18.5007 15.8889L18.8793 16.2748C19.2385 16.6378 19.5193 17.0628 19.7116 17.5226C19.8988 17.9885 20 18.4874 20 19Z" stroke="#58595B" stroke-width="0.75"/>
<path d="M14 20C13.8878 22.2794 11.8265 24.0808 9.32972 23.9972C6.99257 23.9249 5.15056 22.1442 5 20H14Z" stroke="#58595B" stroke-width="0.75"/>
<path d="M20.788 4.00107C20.788 6.18454 19.0165 7.95514 16.833 7.95514C14.6487 7.95514 12.879 6.18454 12.879 4.00107C12.879 1.81672 14.6487 0.0469971 16.833 0.0469971C19.0165 0.0469971 20.788 1.81672 20.788 4.00107Z" fill="#F15955"/>
<path d="M17.6189 2.09485V6.07326H16.5193V3.46647C16.342 3.6012 16.169 3.71159 16.0021 3.79504C15.837 3.87848 15.6266 3.95845 15.3763 4.03407V3.14399C15.7466 3.02491 16.0343 2.88149 16.2377 2.71373C16.4428 2.54771 16.6036 2.33997 16.7175 2.09485H17.6189Z" fill="white"/>
</svg>
