<svg width="35" height="30" viewBox="0 0 35 30" fill="none" xmlns="http://www.w3.org/2000/svg">
<path d="M28.788 8.64301C28.269 8.64301 27.767 8.717 27.293 8.856C26.868 3.903 22.714 0.0140076 17.649 0.0140076C13.398 0.0140076 9.78898 2.756 8.48698 6.565C8.12398 6.502 7.74998 6.467 7.36798 6.467C3.80298 6.467 0.911987 9.358 0.911987 12.922C0.911987 16.486 3.80298 19.377 7.36798 19.377H28.788C31.753 19.377 34.155 16.975 34.155 14.01C34.155 11.047 31.753 8.64301 28.788 8.64301Z" fill="#F1F2F2"/>
<path d="M9.05999 21.234C8.76999 21.234 8.53799 21.468 8.53799 21.754V26.625C8.53799 26.914 8.76999 27.146 9.05999 27.146C9.34799 27.146 9.58099 26.914 9.58099 26.625V21.754C9.57999 21.469 9.34799 21.234 9.05999 21.234Z" fill="white"/>
<path d="M12.448 21.234C12.16 21.234 11.926 21.468 11.926 21.754V25.002C11.926 25.291 12.16 25.525 12.448 25.525C12.737 25.525 12.97 25.291 12.97 25.002V21.754C12.971 21.469 12.737 21.234 12.448 21.234Z" fill="white"/>
<path d="M12.448 26.857C12.16 26.857 11.926 27.091 11.926 27.378V27.958C11.926 28.247 12.16 28.481 12.448 28.481C12.737 28.481 12.97 28.247 12.97 27.958V27.378C12.971 27.092 12.737 26.857 12.448 26.857Z" fill="white"/>
<path d="M15.839 21.234C15.55 21.234 15.317 21.468 15.317 21.754V29.293C15.317 29.58 15.55 29.814 15.839 29.814C16.129 29.814 16.361 29.58 16.361 29.293V21.754C16.361 21.469 16.129 21.234 15.839 21.234Z" fill="white"/>
<path d="M19.229 21.234C18.942 21.234 18.708 21.468 18.708 21.754V25.815C18.708 26.102 18.942 26.336 19.229 26.336C19.518 26.336 19.75 26.102 19.75 25.815V21.754C19.751 21.469 19.519 21.234 19.229 21.234Z" fill="white"/>
<path d="M22.619 21.234C22.332 21.234 22.098 21.468 22.098 21.754V23.262C22.098 23.551 22.331 23.785 22.619 23.785C22.907 23.785 23.142 23.551 23.142 23.262V21.754C23.143 21.469 22.907 21.234 22.619 21.234Z" fill="white"/>
<path d="M22.619 24.943C22.332 24.943 22.098 25.177 22.098 25.466V28.249C22.098 28.536 22.331 28.77 22.619 28.77C22.907 28.77 23.142 28.536 23.142 28.249V25.466C23.143 25.178 22.907 24.943 22.619 24.943Z" fill="white"/>
<path d="M26.01 21.234C25.721 21.234 25.489 21.468 25.489 21.754V26.625C25.489 26.914 25.72 27.146 26.01 27.146C26.297 27.146 26.531 26.914 26.531 26.625V21.754C26.531 21.469 26.297 21.234 26.01 21.234Z" fill="white"/>
</svg>
