<svg width="24" height="22" viewBox="0 0 24 22" fill="none" xmlns="http://www.w3.org/2000/svg">
<path d="M17.1552 2.78314C17.1552 1.87914 16.4242 1.14618 15.5202 1.14618H8.70721C7.80521 1.14618 7.0722 1.87814 7.0722 2.78314C7.0722 3.68514 6.3402 4.41815 5.4372 4.41815H3.9072C2.4432 4.41815 1.2572 5.60618 1.2572 7.06818V18.3771C1.2572 19.8401 2.4442 21.0272 3.9072 21.0272H20.3192C21.7832 21.0272 22.9692 19.8391 22.9692 18.3771V7.06818C22.9692 5.60518 21.7822 4.41815 20.3192 4.41815H18.7902C17.8872 4.41815 17.1552 3.68614 17.1552 2.78314Z" stroke="#ED1C24" stroke-width="0.75" stroke-miterlimit="10" stroke-linecap="round" stroke-linejoin="round"/>
<path d="M12.1142 17.9601C15.3412 17.9601 17.9572 15.3442 17.9572 12.1172C17.9572 8.89019 15.3412 6.27417 12.1142 6.27417C8.88718 6.27417 6.27118 8.89019 6.27118 12.1172C6.27118 15.3442 8.88718 17.9601 12.1142 17.9601Z" stroke="#ED1C24" stroke-width="0.75" stroke-miterlimit="10" stroke-linecap="round" stroke-linejoin="round"/>
</svg>
