<svg width="24" height="23" viewBox="0 0 24 23" fill="none" xmlns="http://www.w3.org/2000/svg">
<path d="M22.7265 9.83162L12.9657 1.59818C12.6944 1.36934 12.3508 1.24384 11.9958 1.24384C11.6408 1.24384 11.2972 1.36934 11.0258 1.59818L1.26687 9.83162C1.14911 9.93113 1.06474 10.0644 1.02519 10.2134C0.985634 10.3625 0.992803 10.52 1.04572 10.6649C1.09864 10.8097 1.19476 10.9347 1.32108 11.0231C1.44739 11.1116 1.59782 11.159 1.752 11.1592H4.33398V21.5335C4.33398 21.6911 4.39661 21.8424 4.50811 21.9539C4.6196 22.0653 4.77082 22.128 4.92849 22.128H9.8606V18.4366C9.84906 17.8747 10.0514 17.3293 10.4266 16.9107C10.8019 16.4922 11.322 16.2318 11.8819 16.1822C12.1717 16.1667 12.4617 16.2104 12.734 16.3107C13.0064 16.4109 13.2555 16.5655 13.4661 16.7652C13.6767 16.9649 13.8444 17.2053 13.9591 17.4719C14.0737 17.7386 14.1328 18.0257 14.1328 18.316V22.128H19.0649C19.2226 22.128 19.3738 22.0653 19.4853 21.9539C19.5968 21.8424 19.6594 21.6911 19.6594 21.5335V11.1592H22.2408C22.395 11.159 22.5454 11.1116 22.6717 11.0231C22.798 10.9347 22.8941 10.8097 22.9471 10.6649C23 10.52 23.0071 10.3625 22.9676 10.2134C22.928 10.0644 22.8437 9.93113 22.7259 9.83162H22.7265Z" stroke="black" stroke-linecap="round" stroke-linejoin="round"/>
<path d="M11.9967 14.3648C13.4762 14.3648 14.6756 13.1654 14.6756 11.6859C14.6756 10.2064 13.4762 9.00702 11.9967 9.00702C10.5172 9.00702 9.31778 10.2064 9.31778 11.6859C9.31778 13.1654 10.5172 14.3648 11.9967 14.3648Z" stroke="black" stroke-linecap="round" stroke-linejoin="round"/>
</svg>
