<svg width="24" height="23" viewBox="0 0 24 23" fill="none" xmlns="http://www.w3.org/2000/svg">
<path d="M22.7265 9.58779L12.9657 1.35434C12.6944 1.12551 12.3508 1 11.9958 1C11.6408 1 11.2972 1.12551 11.0258 1.35434L1.26687 9.58779C1.14911 9.6873 1.06474 9.82058 1.02519 9.9696C0.985634 10.1186 0.992803 10.2762 1.04572 10.421C1.09864 10.5658 1.19476 10.6909 1.32108 10.7793C1.44739 10.8677 1.59782 10.9152 1.752 10.9153H4.33398V21.2896C4.33398 21.4473 4.39661 21.5985 4.50811 21.71C4.6196 21.8215 4.77082 21.8841 4.92849 21.8841H9.8606V18.1928C9.84906 17.6308 10.0514 17.0854 10.4266 16.6669C10.8019 16.2484 11.322 15.988 11.8819 15.9384C12.1717 15.9229 12.4617 15.9666 12.734 16.0668C13.0064 16.167 13.2555 16.3217 13.4661 16.5214C13.6767 16.721 13.8444 16.9615 13.9591 17.2281C14.0737 17.4947 14.1328 17.7819 14.1328 18.0721V21.8841H19.0649C19.2226 21.8841 19.3738 21.8215 19.4853 21.71C19.5968 21.5985 19.6594 21.4473 19.6594 21.2896V10.9153H22.2408C22.395 10.9152 22.5454 10.8677 22.6717 10.7793C22.798 10.6909 22.8941 10.5658 22.9471 10.421C23 10.2762 23.0071 10.1186 22.9676 9.9696C22.928 9.82058 22.8437 9.6873 22.7259 9.58779H22.7265Z" stroke="#ED1C24" stroke-linecap="round" stroke-linejoin="round"/>
<path d="M11.9967 14.121C13.4762 14.121 14.6756 12.9216 14.6756 11.4421C14.6756 9.96256 13.4762 8.76318 11.9967 8.76318C10.5172 8.76318 9.31778 9.96256 9.31778 11.4421C9.31778 12.9216 10.5172 14.121 11.9967 14.121Z" stroke="#ED1C24" stroke-linecap="round" stroke-linejoin="round"/>
</svg>
