<svg width="24" height="21" viewBox="0 0 24 21" fill="none" xmlns="http://www.w3.org/2000/svg">
<path d="M17.1552 2.02698C17.1552 1.12298 16.4242 0.390015 15.5202 0.390015H8.70721C7.80521 0.390015 7.0722 1.12198 7.0722 2.02698C7.0722 2.92898 6.3402 3.66199 5.4372 3.66199H3.9072C2.4432 3.66199 1.2572 4.85001 1.2572 6.31201V17.621C1.2572 19.084 2.4442 20.271 3.9072 20.271H20.3192C21.7832 20.271 22.9692 19.083 22.9692 17.621V6.31201C22.9692 4.84901 21.7822 3.66199 20.3192 3.66199H18.7902C17.8872 3.66199 17.1552 2.92998 17.1552 2.02698Z" stroke="black" stroke-width="0.75" stroke-miterlimit="10" stroke-linecap="round" stroke-linejoin="round"/>
<path d="M12.1142 17.204C15.3412 17.204 17.9572 14.588 17.9572 11.361C17.9572 8.13402 15.3412 5.51801 12.1142 5.51801C8.88718 5.51801 6.27118 8.13402 6.27118 11.361C6.27118 14.588 8.88718 17.204 12.1142 17.204Z" stroke="black" stroke-width="0.75" stroke-miterlimit="10" stroke-linecap="round" stroke-linejoin="round"/>
</svg>
